<?xml version="1.0" encoding="utf-8"?>
<!-- Generator: Adobe Illustrator 19.0.0, SVG Export Plug-In . SVG Version: 6.00 Build 0)  -->
<svg version="1.1" id="Layer_1" xmlns="http://www.w3.org/2000/svg" xmlns:xlink="http://www.w3.org/1999/xlink" x="0px" y="0px"
	 width="24px" height="24px" viewBox="0 0 24 24" style="enable-background:new 0 0 24 24;" xml:space="preserve">
<style type="text/css">
	.st0{fill-rule:evenodd;clip-rule:evenodd;}
</style>
<path id="XMLID_3_" class="st0" d="M12,2c0.309,0,0.599,0.121,0.815,0.341c0.218,0.221,0.339,0.514,0.339,0.825v14.365l6.351-6.424
	c0.45-0.455,1.182-0.455,1.632,0c0.449,0.455,0.449,1.196,0,1.651L12,22l-9.137-9.241c-0.449-0.455-0.449-1.196,0-1.651
	c0.218-0.22,0.507-0.341,0.816-0.341c0.309,0,0.599,0.121,0.817,0.341l6.351,6.424V3.167c0-0.312,0.12-0.605,0.338-0.825
	C11.402,2.121,11.692,2,12,2"/>
</svg>
