<?xml version="1.0" encoding="utf-8"?>
<!-- Generator: Adobe Illustrator 19.0.0, SVG Export Plug-In . SVG Version: 6.00 Build 0)  -->
<svg version="1.1" id="Layer_1" xmlns="http://www.w3.org/2000/svg" xmlns:xlink="http://www.w3.org/1999/xlink" x="0px" y="0px"
	 width="24px" height="24px" viewBox="0 0 24 24" style="enable-background:new 0 0 24 24;" xml:space="preserve">
<style type="text/css">
	.st0{fill-rule:evenodd;clip-rule:evenodd;}
</style>
<path id="XMLID_3_" class="st0" d="M12,22c-0.309,0-0.599-0.121-0.815-0.341c-0.218-0.221-0.339-0.514-0.339-0.825V6.468
	l-6.351,6.424c-0.45,0.455-1.182,0.455-1.632,0c-0.449-0.455-0.449-1.196,0-1.651L12,2l9.137,9.241c0.449,0.455,0.449,1.196,0,1.651
	c-0.218,0.22-0.507,0.341-0.816,0.341s-0.599-0.121-0.817-0.341l-6.351-6.424v14.364c0,0.312-0.12,0.605-0.338,0.825
	C12.598,21.879,12.308,22,12,22"/>
</svg>
