<?xml version="1.0" encoding="utf-8"?>
<!-- Generator: Adobe Illustrator 19.0.0, SVG Export Plug-In . SVG Version: 6.00 Build 0)  -->
<svg version="1.1" id="Layer_1" xmlns="http://www.w3.org/2000/svg" xmlns:xlink="http://www.w3.org/1999/xlink" x="0px" y="0px"
	 width="24px" height="24px" viewBox="0 0 24 24" style="enable-background:new 0 0 24 24;" xml:space="preserve">
<style type="text/css">
	.st0{fill-rule:evenodd;clip-rule:evenodd;}
</style>
<path id="XMLID_3_" class="st0" d="M22,12c0,0.309-0.121,0.599-0.341,0.815c-0.221,0.218-0.514,0.339-0.825,0.339H6.468l6.424,6.351
	c0.455,0.45,0.455,1.182,0,1.632c-0.455,0.449-1.196,0.449-1.651,0L2,12l9.241-9.137c0.455-0.449,1.196-0.449,1.651,0
	c0.22,0.218,0.341,0.507,0.341,0.816c0,0.309-0.121,0.599-0.341,0.817l-6.424,6.351h14.364c0.312,0,0.605,0.12,0.825,0.338
	C21.879,11.402,22,11.692,22,12"/>
</svg>
